<svg xmlns="http://www.w3.org/2000/svg" viewBox="0 0 64 64" width="64" height="64">
  <!-- Rex mark: pixel T-Rex -->
  <rect x="40.73" y="0.00" width="23.27" height="2.97" fill="#ffffff"/>
  <rect x="37.82" y="2.91" width="5.82" height="2.97" fill="#ffffff"/>
  <rect x="46.55" y="2.91" width="17.45" height="2.97" fill="#ffffff"/>
  <rect x="37.82" y="5.82" width="26.18" height="2.97" fill="#ffffff"/>
  <rect x="37.82" y="8.73" width="26.18" height="2.97" fill="#ffffff"/>
  <rect x="37.82" y="11.64" width="14.55" height="2.97" fill="#ffffff"/>
  <rect x="37.82" y="14.55" width="23.27" height="2.97" fill="#ffffff"/>
  <rect x="37.82" y="17.45" width="14.55" height="2.97" fill="#ffffff"/>
  <rect x="0.00" y="20.36" width="2.91" height="2.97" fill="#ffffff"/>
  <rect x="37.82" y="20.36" width="11.64" height="2.97" fill="#ffffff"/>
  <rect x="0.00" y="23.27" width="2.91" height="2.97" fill="#ffffff"/>
  <rect x="34.91" y="23.27" width="14.55" height="2.97" fill="#ffffff"/>
  <rect x="0.00" y="26.18" width="5.82" height="2.97" fill="#ffffff"/>
  <rect x="32.00" y="26.18" width="17.45" height="2.97" fill="#ffffff"/>
  <rect x="0.00" y="29.09" width="8.73" height="2.97" fill="#ffffff"/>
  <rect x="29.09" y="29.09" width="29.09" height="2.97" fill="#ffffff"/>
  <rect x="0.00" y="32.00" width="11.64" height="2.97" fill="#ffffff"/>
  <rect x="26.18" y="32.00" width="32.00" height="2.97" fill="#ffffff"/>
  <rect x="0.00" y="34.91" width="14.55" height="2.97" fill="#ffffff"/>
  <rect x="23.27" y="34.91" width="29.09" height="2.97" fill="#ffffff"/>
  <rect x="0.00" y="37.82" width="55.27" height="2.97" fill="#ffffff"/>
  <rect x="2.91" y="40.73" width="49.45" height="2.97" fill="#ffffff"/>
  <rect x="5.82" y="43.64" width="43.64" height="2.97" fill="#ffffff"/>
  <rect x="8.73" y="46.55" width="37.82" height="2.97" fill="#ffffff"/>
  <rect x="11.64" y="49.45" width="32.00" height="2.97" fill="#ffffff"/>
  <rect x="14.55" y="52.36" width="11.64" height="2.97" fill="#ffffff"/>
  <rect x="32.00" y="52.36" width="11.64" height="2.97" fill="#ffffff"/>
  <rect x="14.55" y="55.27" width="8.73" height="2.97" fill="#ffffff"/>
  <rect x="34.91" y="55.27" width="8.73" height="2.97" fill="#ffffff"/>
  <rect x="14.55" y="58.18" width="5.82" height="2.97" fill="#ffffff"/>
  <rect x="37.82" y="58.18" width="5.82" height="2.97" fill="#ffffff"/>
  <rect x="14.55" y="61.09" width="8.73" height="2.97" fill="#ffffff"/>
  <rect x="37.82" y="61.09" width="8.73" height="2.97" fill="#ffffff"/>
</svg>
